<svg id="visual" viewBox="0 0 960 300" width="960" height="300" xmlns="http://www.w3.org/2000/svg" xmlns:xlink="http://www.w3.org/1999/xlink" version="1.1"><path d="M0 188L22.8 192.2C45.7 196.3 91.3 204.7 137 193.2C182.7 181.7 228.3 150.3 274 144C319.7 137.7 365.3 156.3 411.2 171.5C457 186.7 503 198.3 548.8 201.3C594.7 204.3 640.3 198.7 686 187.8C731.7 177 777.3 161 823 159.5C868.7 158 914.3 171 937.2 177.5L960 184L960 0L937.2 0C914.3 0 868.7 0 823 0C777.3 0 731.7 0 686 0C640.3 0 594.7 0 548.8 0C503 0 457 0 411.2 0C365.3 0 319.7 0 274 0C228.3 0 182.7 0 137 0C91.3 0 45.7 0 22.8 0L0 0Z" fill="#2e2e2e"></path><path d="M0 108L22.8 116.2C45.7 124.3 91.3 140.7 137 149.8C182.7 159 228.3 161 274 159.8C319.7 158.7 365.3 154.3 411.2 142.7C457 131 503 112 548.8 103.7C594.7 95.3 640.3 97.7 686 102.5C731.7 107.3 777.3 114.7 823 113.3C868.7 112 914.3 102 937.2 97L960 92L960 0L937.2 0C914.3 0 868.7 0 823 0C777.3 0 731.7 0 686 0C640.3 0 594.7 0 548.8 0C503 0 457 0 411.2 0C365.3 0 319.7 0 274 0C228.3 0 182.7 0 137 0C91.3 0 45.7 0 22.8 0L0 0Z" fill="#323232"></path><path d="M0 107L22.8 109.5C45.7 112 91.3 117 137 109.3C182.7 101.7 228.3 81.3 274 77.2C319.7 73 365.3 85 411.2 88C457 91 503 85 548.8 92C594.7 99 640.3 119 686 118.7C731.7 118.3 777.3 97.7 823 91.3C868.7 85 914.3 93 937.2 97L960 101L960 0L937.2 0C914.3 0 868.7 0 823 0C777.3 0 731.7 0 686 0C640.3 0 594.7 0 548.8 0C503 0 457 0 411.2 0C365.3 0 319.7 0 274 0C228.3 0 182.7 0 137 0C91.3 0 45.7 0 22.8 0L0 0Z" fill="#363636"></path><path d="M0 40L22.8 41.3C45.7 42.7 91.3 45.3 137 46C182.7 46.7 228.3 45.3 274 47.7C319.7 50 365.3 56 411.2 63.3C457 70.7 503 79.3 548.8 81.5C594.7 83.7 640.3 79.3 686 79.8C731.7 80.3 777.3 85.7 823 89.2C868.7 92.7 914.3 94.3 937.2 95.2L960 96L960 0L937.2 0C914.3 0 868.7 0 823 0C777.3 0 731.7 0 686 0C640.3 0 594.7 0 548.8 0C503 0 457 0 411.2 0C365.3 0 319.7 0 274 0C228.3 0 182.7 0 137 0C91.3 0 45.7 0 22.8 0L0 0Z" fill="#3a3a3a"></path><path d="M0 54L22.8 52.7C45.7 51.3 91.3 48.7 137 41.7C182.7 34.7 228.3 23.3 274 23.3C319.7 23.3 365.3 34.7 411.2 42.8C457 51 503 56 548.8 55.8C594.7 55.7 640.3 50.3 686 47.5C731.7 44.7 777.3 44.3 823 45.8C868.7 47.3 914.3 50.7 937.2 52.3L960 54L960 0L937.2 0C914.3 0 868.7 0 823 0C777.3 0 731.7 0 686 0C640.3 0 594.7 0 548.8 0C503 0 457 0 411.2 0C365.3 0 319.7 0 274 0C228.3 0 182.7 0 137 0C91.3 0 45.7 0 22.8 0L0 0Z" fill="#3e3e3e"></path></svg>